<svg xmlns="http://www.w3.org/2000/svg" viewBox="0 0 480 360">
  <rect width="480" height="360" fill="#FAFAF5"/>
  <rect width="480" height="34" fill="#1E293B"/>
  <circle cx="16" cy="17" r="4" fill="#FCA5A5"/>
  <circle cx="30" cy="17" r="4" fill="#FDE68A"/>
  <circle cx="44" cy="17" r="4" fill="#BBF7D0"/>
  <rect x="130" y="9" width="220" height="16" rx="8" fill="#334155"/>
  <text x="240" y="21" font-family="monospace" font-size="10" fill="#F1F5F9" text-anchor="middle">lcbsdhaka.com</text>
  <rect x="0" y="34" width="480" height="200" fill="#1E293B"/>
  <g transform="translate(240,110)">
    <path d="M-40 -18 L0 -34 L40 -18 L0 -2 Z" fill="#D4AF37"/>
    <path d="M-40 -18 L-40 6 L0 22 L0 -2 Z" fill="#B8942B"/>
    <path d="M40 -18 L40 6 L0 22 L0 -2 Z" fill="#C9A431"/>
  </g>
  <rect x="130" y="150" width="220" height="14" rx="4" fill="#F1F5F9" opacity="0.9"/>
  <rect x="170" y="172" width="140" height="8" rx="4" fill="#94A3B8"/>
  <rect x="190" y="196" width="100" height="26" rx="13" fill="#D4AF37"/>
  <rect x="60" y="255" width="120" height="80" rx="8" fill="#FFFFFF" stroke="#E2E8F0"/>
  <rect x="180" y="255" width="120" height="80" rx="8" fill="#FFFFFF" stroke="#E2E8F0"/>
  <rect x="300" y="255" width="120" height="80" rx="8" fill="#FFFFFF" stroke="#E2E8F0"/>
</svg>
